<mxfile host="app.diagrams.net" agent="Mozilla/5.0 (Windows NT 10.0; Win64; x64) AppleWebKit/537.36 (KHTML, like Gecko) Chrome/136.0.0.0 Safari/537.36" version="27.0.3">
  <diagram id="R2lEEEUBdFMjLlhIrx00" name="Page-1">
    <mxGraphModel dx="2084" dy="1148" grid="1" gridSize="10" guides="1" tooltips="1" connect="1" arrows="1" fold="1" page="1" pageScale="1" pageWidth="850" pageHeight="1100" math="0" shadow="0" extFonts="Permanent Marker^https://fonts.googleapis.com/css?family=Permanent+Marker">
      <root>
        <mxCell id="0" />
        <mxCell id="1" parent="0" />
        <mxCell id="NKIMyI9g-_v9_jarEWKc-25" style="edgeStyle=orthogonalEdgeStyle;rounded=0;orthogonalLoop=1;jettySize=auto;html=1;exitX=1;exitY=0.5;exitDx=0;exitDy=0;entryX=0;entryY=0.5;entryDx=0;entryDy=0;endArrow=none;startFill=0;fontSize=20;" parent="1" source="NKIMyI9g-_v9_jarEWKc-2" target="NKIMyI9g-_v9_jarEWKc-15" edge="1">
          <mxGeometry relative="1" as="geometry" />
        </mxCell>
        <mxCell id="NKIMyI9g-_v9_jarEWKc-2" value="ALUMNO" style="rounded=0;whiteSpace=wrap;html=1;fontSize=20;fillColor=#60a917;fontColor=#ffffff;strokeColor=#2D7600;" parent="1" vertex="1">
          <mxGeometry x="410" y="650" width="120" height="60" as="geometry" />
        </mxCell>
        <mxCell id="NKIMyI9g-_v9_jarEWKc-8" style="edgeStyle=orthogonalEdgeStyle;rounded=0;orthogonalLoop=1;jettySize=auto;html=1;exitX=1;exitY=0.5;exitDx=0;exitDy=0;entryX=0.5;entryY=0;entryDx=0;entryDy=0;endArrow=none;startFill=0;fontSize=20;" parent="1" source="NKIMyI9g-_v9_jarEWKc-3" target="NKIMyI9g-_v9_jarEWKc-2" edge="1">
          <mxGeometry relative="1" as="geometry" />
        </mxCell>
        <mxCell id="NKIMyI9g-_v9_jarEWKc-3" value="nombre" style="ellipse;whiteSpace=wrap;html=1;fontSize=20;fillColor=#a0522d;fontColor=#ffffff;strokeColor=#6D1F00;" parent="1" vertex="1">
          <mxGeometry x="214" y="550" width="102" height="40" as="geometry" />
        </mxCell>
        <mxCell id="NKIMyI9g-_v9_jarEWKc-9" style="edgeStyle=orthogonalEdgeStyle;rounded=0;orthogonalLoop=1;jettySize=auto;html=1;exitX=1;exitY=0.5;exitDx=0;exitDy=0;entryX=0;entryY=0.25;entryDx=0;entryDy=0;endArrow=none;startFill=0;fontSize=20;" parent="1" source="NKIMyI9g-_v9_jarEWKc-4" target="NKIMyI9g-_v9_jarEWKc-2" edge="1">
          <mxGeometry relative="1" as="geometry" />
        </mxCell>
        <mxCell id="NKIMyI9g-_v9_jarEWKc-4" value="apellido" style="ellipse;whiteSpace=wrap;html=1;fontSize=20;fillColor=#a0522d;fontColor=#ffffff;strokeColor=#6D1F00;" parent="1" vertex="1">
          <mxGeometry x="205" y="610" width="98" height="40" as="geometry" />
        </mxCell>
        <mxCell id="NKIMyI9g-_v9_jarEWKc-5" value="dni" style="ellipse;whiteSpace=wrap;html=1;fontSize=20;fillColor=#a0522d;fontColor=#ffffff;strokeColor=#6D1F00;" parent="1" vertex="1">
          <mxGeometry x="205" y="663" width="88" height="40" as="geometry" />
        </mxCell>
        <mxCell id="NKIMyI9g-_v9_jarEWKc-6" value="&lt;u&gt;numero_legajo&lt;/u&gt;" style="ellipse;whiteSpace=wrap;html=1;fontSize=20;fillColor=#a0522d;fontColor=#ffffff;strokeColor=#6D1F00;" parent="1" vertex="1">
          <mxGeometry x="143" y="720" width="170" height="40" as="geometry" />
        </mxCell>
        <mxCell id="NKIMyI9g-_v9_jarEWKc-10" style="edgeStyle=orthogonalEdgeStyle;rounded=0;orthogonalLoop=1;jettySize=auto;html=1;exitX=1;exitY=0.5;exitDx=0;exitDy=0;entryX=-0.003;entryY=0.547;entryDx=0;entryDy=0;entryPerimeter=0;endArrow=none;startFill=0;fontSize=20;" parent="1" source="NKIMyI9g-_v9_jarEWKc-5" target="NKIMyI9g-_v9_jarEWKc-2" edge="1">
          <mxGeometry relative="1" as="geometry" />
        </mxCell>
        <mxCell id="NKIMyI9g-_v9_jarEWKc-11" style="edgeStyle=orthogonalEdgeStyle;rounded=0;orthogonalLoop=1;jettySize=auto;html=1;exitX=1;exitY=0.5;exitDx=0;exitDy=0;entryX=-0.01;entryY=0.822;entryDx=0;entryDy=0;entryPerimeter=0;endArrow=none;startFill=0;fontSize=20;" parent="1" source="NKIMyI9g-_v9_jarEWKc-6" target="NKIMyI9g-_v9_jarEWKc-2" edge="1">
          <mxGeometry relative="1" as="geometry" />
        </mxCell>
        <mxCell id="NKIMyI9g-_v9_jarEWKc-28" style="edgeStyle=orthogonalEdgeStyle;rounded=0;orthogonalLoop=1;jettySize=auto;html=1;exitX=1;exitY=0.5;exitDx=0;exitDy=0;entryX=0;entryY=0.5;entryDx=0;entryDy=0;endArrow=none;startFill=0;fontSize=20;" parent="1" source="NKIMyI9g-_v9_jarEWKc-15" edge="1">
          <mxGeometry relative="1" as="geometry">
            <mxPoint x="803" y="680" as="targetPoint" />
          </mxGeometry>
        </mxCell>
        <mxCell id="NKIMyI9g-_v9_jarEWKc-15" value="ANOTA" style="rhombus;whiteSpace=wrap;html=1;fontSize=20;fillColor=#1ba1e2;fontColor=#ffffff;strokeColor=#006EAF;" parent="1" vertex="1">
          <mxGeometry x="593" y="640" width="150" height="80" as="geometry" />
        </mxCell>
        <mxCell id="NKIMyI9g-_v9_jarEWKc-21" style="edgeStyle=orthogonalEdgeStyle;rounded=0;orthogonalLoop=1;jettySize=auto;html=1;exitX=0;exitY=0.5;exitDx=0;exitDy=0;entryX=0.75;entryY=0;entryDx=0;entryDy=0;endArrow=none;startFill=0;fontSize=20;" parent="1" source="NKIMyI9g-_v9_jarEWKc-16" target="NKIMyI9g-_v9_jarEWKc-32" edge="1">
          <mxGeometry relative="1" as="geometry">
            <mxPoint x="943" y="650" as="targetPoint" />
          </mxGeometry>
        </mxCell>
        <mxCell id="NKIMyI9g-_v9_jarEWKc-16" value="nombre" style="ellipse;whiteSpace=wrap;html=1;fontSize=20;fillColor=#a0522d;fontColor=#ffffff;strokeColor=#6D1F00;" parent="1" vertex="1">
          <mxGeometry x="973" y="510" width="110" height="30" as="geometry" />
        </mxCell>
        <mxCell id="NKIMyI9g-_v9_jarEWKc-22" style="edgeStyle=orthogonalEdgeStyle;rounded=0;orthogonalLoop=1;jettySize=auto;html=1;exitX=0;exitY=0.5;exitDx=0;exitDy=0;entryX=1;entryY=0;entryDx=0;entryDy=0;endArrow=none;startFill=0;fontSize=20;" parent="1" source="NKIMyI9g-_v9_jarEWKc-17" target="NKIMyI9g-_v9_jarEWKc-32" edge="1">
          <mxGeometry relative="1" as="geometry">
            <mxPoint x="943" y="665" as="targetPoint" />
          </mxGeometry>
        </mxCell>
        <mxCell id="NKIMyI9g-_v9_jarEWKc-17" value="cupo_maximo" style="ellipse;whiteSpace=wrap;html=1;fontSize=20;fillColor=#a0522d;fontColor=#ffffff;strokeColor=#6D1F00;" parent="1" vertex="1">
          <mxGeometry x="963" y="550" width="140" height="40" as="geometry" />
        </mxCell>
        <mxCell id="NKIMyI9g-_v9_jarEWKc-18" value="&lt;u&gt;numero_materia&lt;/u&gt;" style="ellipse;whiteSpace=wrap;html=1;fontSize=20;fillColor=#a0522d;fontColor=#ffffff;strokeColor=#6D1F00;" parent="1" vertex="1">
          <mxGeometry x="973" y="600" width="173" height="40" as="geometry" />
        </mxCell>
        <mxCell id="NKIMyI9g-_v9_jarEWKc-26" value="&lt;font&gt;(0:M)&lt;/font&gt;" style="text;html=1;align=center;verticalAlign=middle;resizable=0;points=[];autosize=1;strokeColor=none;fillColor=none;fontSize=20;" parent="1" vertex="1">
          <mxGeometry x="530" y="640" width="70" height="40" as="geometry" />
        </mxCell>
        <mxCell id="NKIMyI9g-_v9_jarEWKc-29" value="&lt;font&gt;(1:N)&lt;/font&gt;" style="text;html=1;align=center;verticalAlign=middle;resizable=0;points=[];autosize=1;strokeColor=none;fillColor=none;fontSize=20;" parent="1" vertex="1">
          <mxGeometry x="733" y="640" width="70" height="40" as="geometry" />
        </mxCell>
        <mxCell id="NKIMyI9g-_v9_jarEWKc-30" value="&lt;div&gt;&lt;span style=&quot;background-color: transparent; color: light-dark(rgb(0, 0, 0), rgb(255, 255, 255));&quot;&gt;M:N&lt;/span&gt;&lt;/div&gt;" style="text;html=1;align=center;verticalAlign=middle;resizable=0;points=[];autosize=1;strokeColor=none;fillColor=none;fontSize=20;" parent="1" vertex="1">
          <mxGeometry x="638" y="590" width="60" height="40" as="geometry" />
        </mxCell>
        <mxCell id="jVmzNfwSdMp4avw0zIDo-4" style="edgeStyle=orthogonalEdgeStyle;rounded=0;orthogonalLoop=1;jettySize=auto;html=1;exitX=1;exitY=0.25;exitDx=0;exitDy=0;entryX=0.5;entryY=1;entryDx=0;entryDy=0;endArrow=none;startFill=0;fontSize=20;" parent="1" source="NKIMyI9g-_v9_jarEWKc-32" target="NKIMyI9g-_v9_jarEWKc-18" edge="1">
          <mxGeometry relative="1" as="geometry" />
        </mxCell>
        <mxCell id="NKIMyI9g-_v9_jarEWKc-32" value="MATERIA" style="rounded=0;whiteSpace=wrap;html=1;fontSize=20;fillColor=#60a917;fontColor=#ffffff;strokeColor=#2D7600;" parent="1" vertex="1">
          <mxGeometry x="803" y="650" width="140" height="60" as="geometry" />
        </mxCell>
        <mxCell id="NKIMyI9g-_v9_jarEWKc-34" value="Diagrama Entidad Relacion DER" style="text;html=1;align=center;verticalAlign=middle;resizable=0;points=[];autosize=1;strokeColor=none;fillColor=none;fontSize=22;fontStyle=1" parent="1" vertex="1">
          <mxGeometry x="178" width="340" height="40" as="geometry" />
        </mxCell>
        <mxCell id="HcggXVtPN_Zj9PrgEhdN-15" value="&lt;font&gt;Victoria Rodriguez&lt;/font&gt;" style="text;html=1;align=center;verticalAlign=middle;resizable=0;points=[];autosize=1;strokeColor=none;fillColor=none;fontSize=22;" parent="1" vertex="1">
          <mxGeometry x="178" y="60" width="200" height="40" as="geometry" />
        </mxCell>
        <mxCell id="jVmzNfwSdMp4avw0zIDo-5" value="&lt;p class=&quot;&quot; data-end=&quot;138&quot; data-start=&quot;44&quot;&gt;&lt;strong data-end=&quot;138&quot; data-start=&quot;47&quot;&gt;&lt;font&gt;Crear un diagrama entidad relación que contenga la solución al siguiente requerimiento.&lt;/font&gt;&lt;/strong&gt;&lt;/p&gt;&lt;p class=&quot;&quot; data-end=&quot;467&quot; data-start=&quot;140&quot;&gt;&lt;font&gt;Existe una institución en la cual se dictan materias a alumnos.&lt;br data-end=&quot;206&quot; data-start=&quot;203&quot;&gt;&lt;br&gt;Cada alumno puede anotarse a una o varias materias.&lt;br data-end=&quot;260&quot; data-start=&quot;257&quot;&gt;&lt;br&gt;Se desea almacenar, nombre, apellido y DNI del alumno, este tendrá un número único de legajo.&lt;br data-end=&quot;356&quot; data-start=&quot;353&quot;&gt;&lt;br&gt;También se desea almacenar el nombre de la materia, el cupo máximo y se le asignará un número único de materia.&lt;/font&gt;&lt;/p&gt;&lt;p class=&quot;&quot; data-end=&quot;513&quot; data-start=&quot;469&quot;&gt;&lt;font&gt;Dibuje el diagrama respetando lo solicitado.&lt;/font&gt;&lt;/p&gt;" style="text;whiteSpace=wrap;html=1;fontSize=22;" parent="1" vertex="1">
          <mxGeometry x="163" y="120" width="1050" height="310" as="geometry" />
        </mxCell>
        <mxCell id="mN_tCqvkbtEjZtmVLZV5-1" value="&lt;u&gt;NO ES PK, ES ATRIBUTO CLAVE&lt;br&gt;&lt;/u&gt;" style="text;html=1;align=center;verticalAlign=middle;resizable=0;points=[];autosize=1;strokeColor=none;fillColor=none;fontSize=20;" parent="1" vertex="1">
          <mxGeometry x="84" y="770" width="330" height="40" as="geometry" />
        </mxCell>
        <mxCell id="mN_tCqvkbtEjZtmVLZV5-2" value="porque la consigna decia numero unico de legajo" style="text;html=1;align=center;verticalAlign=middle;resizable=0;points=[];autosize=1;strokeColor=none;fillColor=none;fontSize=18;" parent="1" vertex="1">
          <mxGeometry x="39" y="800" width="420" height="40" as="geometry" />
        </mxCell>
        <mxCell id="mN_tCqvkbtEjZtmVLZV5-3" value="&lt;u&gt;NO ES PK, ES ATRIBUTO CLAVE&lt;br&gt;&lt;/u&gt;" style="text;html=1;align=center;verticalAlign=middle;resizable=0;points=[];autosize=1;strokeColor=none;fillColor=none;fontSize=20;" parent="1" vertex="1">
          <mxGeometry x="1148" y="663" width="330" height="40" as="geometry" />
        </mxCell>
        <mxCell id="mN_tCqvkbtEjZtmVLZV5-4" value="porque la consigna decia numero unico de materia" style="text;html=1;align=center;verticalAlign=middle;resizable=0;points=[];autosize=1;strokeColor=none;fillColor=none;fontSize=18;" parent="1" vertex="1">
          <mxGeometry x="1098" y="693" width="430" height="40" as="geometry" />
        </mxCell>
        <mxCell id="mN_tCqvkbtEjZtmVLZV5-5" value="&lt;font style=&quot;color: light-dark(rgb(0, 0, 0), rgb(0, 0, 0));&quot;&gt;NO SE PONE id_materia a los atributos clave, porque esto se muestra al Cliente, y el Cliente no va a entender que es un id&lt;/font&gt;" style="text;html=1;align=center;verticalAlign=middle;resizable=0;points=[];autosize=1;strokeColor=light-dark(#BD7000,#BAC139);fillColor=light-dark(#BD7000,#BAC139);fontSize=22;fontColor=#000000;" parent="1" vertex="1">
          <mxGeometry x="83" y="450" width="1230" height="40" as="geometry" />
        </mxCell>
        <mxCell id="mN_tCqvkbtEjZtmVLZV5-6" value="Va cero acá, porque por ejemplo. Cuando el terciario arrancó, &lt;br&gt;no habia nadie cursando la materia de 2do o 3er año, porque todos &lt;br&gt;estaban en 1er año. En ese caso la materia sí tiene 0 alumnos" style="text;html=1;align=center;verticalAlign=middle;resizable=0;points=[];autosize=1;strokeColor=#b85450;fillColor=#f8cecc;fontSize=18;gradientColor=#ea6b66;" parent="1" vertex="1">
          <mxGeometry x="493" y="750" width="560" height="80" as="geometry" />
        </mxCell>
        <mxCell id="mN_tCqvkbtEjZtmVLZV5-9" value="" style="curved=1;endArrow=classic;html=1;rounded=0;fontColor=light-dark(#000000,#CC0000);labelBackgroundColor=light-dark(#FFFFFF,#CC0000);fillColor=#f8cecc;gradientColor=#ea6b66;strokeColor=#b85450;strokeWidth=3;" parent="1" edge="1">
          <mxGeometry width="50" height="50" relative="1" as="geometry">
            <mxPoint x="553" y="690" as="sourcePoint" />
            <mxPoint x="578" y="748" as="targetPoint" />
            <Array as="points">
              <mxPoint x="638" y="728" />
              <mxPoint x="588" y="678" />
            </Array>
          </mxGeometry>
        </mxCell>
        <mxCell id="mN_tCqvkbtEjZtmVLZV5-10" value="los rombos en un diagrama de tablas, son una tabla" style="text;html=1;align=center;verticalAlign=middle;resizable=0;points=[];autosize=1;strokeColor=#6c8ebf;fillColor=#dae8fc;gradientColor=#7ea6e0;fontSize=18;" parent="1" vertex="1">
          <mxGeometry x="153" y="900" width="440" height="40" as="geometry" />
        </mxCell>
      </root>
    </mxGraphModel>
  </diagram>
</mxfile>
